<?xml version="1.0" standalone="no"?>
<!DOCTYPE svg PUBLIC "-//W3C//DTD SVG 20010904//EN"
  "http://www.w3.org/TR/2001/REC-SVG-20010904/DTD/svg10.dtd">
<svg version="1.0" xmlns="http://www.w3.org/2000/svg"
     width="192.000000pt" height="192.000000pt" viewBox="0 0 192.000000 192.000000"
     preserveAspectRatio="xMidYMid meet">

  <g transform="translate(0.000000,192.000000) scale(0.100000,-0.100000)"
     fill="#000000" stroke="none">
    <path d="M900 1786 c0 -8 -7 -16 -15 -20 -11 -4 -15 -20 -15 -56 0 -36 4 -52
15 -56 8 -4 15 -15 15 -25 0 -11 7 -22 15 -25 11 -4 15 -21 15 -55 0 -37 -4
-49 -15 -49 -10 0 -15 -10 -15 -30 0 -27 3 -30 30 -30 20 0 30 5 30 15 0 8 7
15 15 15 12 0 15 15 15 75 0 60 -3 75 -15 75 -10 0 -15 10 -15 30 0 20 -5 30
-15 30 -10 0 -15 10 -15 30 0 20 5 30 15 30 10 0 15 10 15 30 0 27 -3 30 -30
30 -19 0 -30 -5 -30 -14z"/>
    <path d="M593 1714 c-28 -31 -33 -108 -8 -118 8 -3 15 -13 15 -21 0 -9 7 -23
15 -31 9 -9 15 -34 15 -60 0 -32 -4 -44 -15 -44 -10 0 -15 -10 -15 -30 0 -25
4 -30 23 -30 39 0 61 37 65 113 4 57 2 67 -12 67 -10 0 -16 9 -16 25 0 14 -7
28 -15 31 -9 4 -15 19 -15 35 0 19 5 29 15 29 10 0 15 10 15 30 0 24 -4 30
-22 30 -13 0 -33 -12 -45 -26z"/>
    <path d="M1192 1710 c-24 -32 -29 -91 -9 -112 44 -47 66 -158 32 -158 -10 0
-15 -10 -15 -30 0 -25 4 -30 23 -30 39 0 61 37 65 113 4 57 2 67 -12 67 -10 0
-16 9 -16 25 0 14 -7 28 -15 31 -9 4 -15 19 -15 35 0 19 5 29 15 29 10 0 15
10 15 30 0 25 -4 30 -23 30 -14 0 -32 -12 -45 -30z"/>
    <path d="M390 1088 c1 -112 6 -223 12 -248 6 -25 13 -96 15 -157 3 -90 7 -113
19 -113 9 0 14 -11 14 -30 0 -20 5 -30 15 -30 8 0 15 -7 15 -15 0 -8 7 -15 15
-15 8 0 15 -7 15 -15 0 -8 7 -15 15 -15 8 0 15 -7 15 -15 0 -13 -25 -15 -165
-15 l-165 0 0 -37 c0 -43 29 -112 48 -113 6 0 12 -7 12 -15 0 -8 7 -15 15 -15
8 0 15 -6 15 -14 0 -8 14 -17 30 -21 17 -4 30 -11 30 -16 0 -5 229 -9 570 -9
341 0 570 4 570 9 0 5 14 12 30 16 17 4 30 13 30 21 0 8 7 14 15 14 8 0 15 7
15 15 0 8 7 15 15 15 8 0 15 8 15 19 0 10 7 24 15 31 9 8 15 30 15 56 l0 44
-165 0 c-140 0 -165 2 -165 15 0 8 7 15 15 15 8 0 15 7 15 15 0 8 7 15 15 15
8 0 15 7 15 15 0 8 7 15 15 15 10 0 15 10 15 30 0 20 5 30 15 30 10 0 15 10
15 30 l0 30 94 0 c71 0 97 4 106 15 7 8 19 15 26 15 8 0 14 7 14 15 0 8 6 15
14 15 17 0 26 64 26 195 0 131 -9 195 -26 195 -8 0 -14 7 -14 15 0 8 -6 15
-14 15 -7 0 -19 7 -26 15 -9 11 -33 15 -91 15 l-79 0 0 75 0 75 -540 0 -540 0
0 -202z m1020 8 c0 -99 -3 -135 -12 -138 -10 -4 -14 -54 -16 -196 -3 -159 -6
-192 -18 -192 -8 0 -14 -4 -14 -9 0 -6 -11 -22 -25 -37 -13 -14 -22 -30 -19
-35 3 -5 -6 -9 -20 -9 -16 0 -26 -6 -26 -15 0 -10 -10 -15 -30 -15 -20 0 -30
-5 -30 -15 0 -13 -37 -15 -270 -15 -233 0 -270 2 -270 15 0 10 -10 15 -30 15
-20 0 -30 5 -30 15 0 9 -9 15 -24 15 -18 0 -27 8 -35 30 -5 17 -15 30 -20 30
-6 0 -11 7 -11 15 0 8 -7 15 -15 15 -13 0 -15 21 -15 131 0 74 -4 128 -9 125
-17 -11 -21 27 -21 215 l0 189 480 0 480 0 0 -134z m210 -31 c0 -8 6 -15 14
-15 19 0 25 -30 27 -150 1 -122 -7 -180 -27 -180 -8 0 -14 -7 -14 -15 0 -12
-15 -15 -75 -15 l-75 0 0 195 0 195 75 0 c60 0 75 -3 75 -15z m-30 -720 c0 -8
-6 -15 -13 -15 -7 0 -17 -10 -22 -22 -6 -13 -20 -27 -32 -33 -13 -5 -23 -15
-23 -22 0 -10 -118 -13 -570 -13 -452 0 -570 3 -570 13 0 7 -10 17 -22 22 -13
6 -27 20 -33 33 -5 12 -15 22 -22 22 -7 0 -13 7 -13 15 0 13 80 15 660 15 580
0 660 -2 660 -15z"/>
  </g>
</svg>
